# xmcd
# 
# Track frame offsets:
#     150
#     13220
#     26280
# 
# Disc length: 522
# 
# Revision: 1
# Processed by: cddbd v1.5.2PL0 Copyright (c) Steve Scherf et al.
# Submitted via: fre:ac v1.0.31
# 
DISCID=18020803
DTITLE=Nussbaumer, George - Weil큦 dr guat got
DYEAR=1996
DGENRE=AustroPop
TTITLE0=Weil큦 dr guat got - Dialekt Version
TTITLE1=Weil큦 dr guat got - That You Feel Good
TTITLE2=Weil큦 dr guat got - Pianomix
EXTD=
EXTT0=
EXTT1=
EXTT2=
PLAYORDER=
